# Blender v3.2.2 OBJ File: ''
# www.blender.org
o smelter_cube.001
v 0.437500 0.062500 -0.125000
v -0.437500 0.062500 -0.125000
v -0.437500 0.812500 -0.125000
v 0.437500 0.812500 -0.125000
v 0.437500 0.062500 0.500000
v 0.437500 0.812500 0.500000
v -0.437500 0.062500 0.500000
v -0.437500 0.812500 0.500000
v 0.500000 0.000000 -0.500000
v -0.500000 0.000000 -0.500000
v -0.500000 0.062500 -0.500000
v 0.500000 0.062500 -0.500000
v 0.500000 -0.000000 0.500000
v 0.500000 0.062500 0.500000
v -0.500000 -0.000000 0.500000
v -0.500000 0.062500 0.500000
v 0.375000 0.062500 -0.500000
v -0.375000 0.062500 -0.500000
v -0.375000 1.000000 -0.500000
v 0.375000 1.000000 -0.500000
v 0.375000 0.062500 -0.125000
v 0.375000 1.000000 -0.125000
v -0.375000 0.062500 -0.125000
v -0.375000 1.000000 -0.125000
vn 0.0000 0.0000 -1.0000
vn 1.0000 -0.0000 0.0000
vn 0.0000 -0.0000 1.0000
vn -1.0000 0.0000 0.0000
vn 0.0000 1.0000 0.0000
vn 0.0000 -1.0000 -0.0000
s 1
f 2//1 4//1 1//1
f 1//2 6//2 5//2
f 5//3 8//3 7//3
f 7//4 3//4 2//4
f 6//5 3//5 8//5
f 1//6 7//6 2//6
f 10//1 12//1 9//1
f 9//2 14//2 13//2
f 13//3 16//3 15//3
f 15//4 11//4 10//4
f 14//5 11//5 16//5
f 9//6 15//6 10//6
f 18//1 20//1 17//1
f 17//2 22//2 21//2
f 21//3 24//3 23//3
f 23//4 19//4 18//4
f 22//5 19//5 24//5
f 17//6 23//6 18//6
f 2//1 3//1 4//1
f 1//2 4//2 6//2
f 5//3 6//3 8//3
f 7//4 8//4 3//4
f 6//5 4//5 3//5
f 1//6 5//6 7//6
f 10//1 11//1 12//1
f 9//2 12//2 14//2
f 13//3 14//3 16//3
f 15//4 16//4 11//4
f 14//5 12//5 11//5
f 9//6 13//6 15//6
f 18//1 19//1 20//1
f 17//2 20//2 22//2
f 21//3 22//3 24//3
f 23//4 24//4 19//4
f 22//5 20//5 19//5
f 17//6 21//6 23//6
